<?xml version="1.0" standalone="no"?>
<!DOCTYPE svg PUBLIC "-//W3C//DTD SVG 20010904//EN"
 "http://www.w3.org/TR/2001/REC-SVG-20010904/DTD/svg10.dtd">
<svg version="1.0" xmlns="http://www.w3.org/2000/svg"
 width="200.000000pt" height="200.000000pt" viewBox="0 0 200.000000 200.000000"
 preserveAspectRatio="xMidYMid meet">

<g transform="translate(0.000000,200.000000) scale(0.100000,-0.100000)"
fill="#000000" stroke="none">
<path d="M146 1607 c-3 -155 -8 -408 -11 -562 l-6 -280 144 -137 144 -137 7
442 c3 243 9 496 12 562 l6 120 -145 137 -145 137 -6 -282z"/>
<path d="M1074 620 l6 -80 68 -64 67 -64 3 91 c2 51 0 116 -3 145 l-6 52 -71
0 -71 0 7 -80z"/>
<path d="M150 310 c0 -5 7 -10 15 -10 12 0 15 -13 15 -55 0 -42 -3 -55 -15
-55 -8 0 -15 -4 -15 -10 0 -5 18 -10 40 -10 22 0 40 5 40 10 0 6 -7 10 -15 10
-11 0 -15 12 -15 52 l0 52 63 -62 c34 -34 66 -62 70 -62 4 0 7 29 7 65 0 51 3
65 15 65 8 0 15 5 15 10 0 6 -18 10 -40 10 -22 0 -40 -4 -40 -10 0 -5 7 -10
15 -10 11 0 15 -11 15 -40 0 -22 -4 -40 -9 -40 -4 0 -29 23 -55 50 -36 38 -54
50 -76 50 -17 0 -30 -4 -30 -10z"/>
<path d="M1510 310 c0 -5 9 -10 20 -10 18 0 20 -7 20 -55 0 -42 -3 -55 -15
-55 -8 0 -15 -4 -15 -10 0 -6 33 -10 80 -10 79 0 80 0 80 25 0 16 -6 25 -15
25 -8 0 -15 -7 -15 -15 0 -11 -11 -15 -40 -15 l-40 0 0 55 c0 42 3 55 15 55 8
0 15 5 15 10 0 6 -20 10 -45 10 -25 0 -45 -4 -45 -10z"/>
<path d="M443 275 c-55 -39 -6 -122 59 -97 27 10 29 9 26 -10 -5 -32 -32 -45
-68 -31 -18 7 -32 7 -36 2 -7 -12 23 -23 65 -23 48 0 71 32 71 99 0 33 5 55
13 58 6 3 1 6 -13 6 -14 1 -41 4 -60 7 -24 3 -42 0 -57 -11z m81 -27 c14 -23
-3 -52 -33 -56 -42 -6 -67 38 -39 66 17 17 58 11 72 -10z"/>
<path d="M1055 265 c-30 -29 -31 -49 -5 -75 20 -20 55 -25 98 -14 33 9 27 24
-8 18 -34 -7 -80 2 -80 16 0 6 25 10 55 10 48 0 55 3 55 19 0 24 -36 51 -68
51 -12 0 -34 -11 -47 -25z m85 -10 c11 -13 6 -15 -35 -15 -41 0 -46 2 -35 15
7 8 23 15 35 15 12 0 28 -7 35 -15z"/>
<path d="M1296 283 c-4 -4 -23 -7 -44 -6 -20 1 -29 -1 -19 -4 23 -6 25 -83 2
-83 -8 0 -15 -4 -15 -10 0 -5 16 -10 35 -10 19 0 35 5 35 10 0 6 -4 10 -10 10
-5 0 -10 14 -10 30 0 37 39 62 65 40 17 -14 21 -70 5 -70 -5 0 -10 -4 -10 -10
0 -5 16 -10 35 -10 19 0 35 5 35 10 0 6 -7 10 -15 10 -11 0 -15 11 -15 40 0
29 -5 42 -19 50 -23 12 -45 13 -55 3z"/>
<path d="M1755 278 c-40 -23 -46 -57 -15 -88 23 -23 77 -27 104 -7 15 11 11
13 -35 12 -33 0 -54 5 -56 13 -3 9 11 12 51 12 49 0 56 3 56 19 0 40 -63 63
-105 39z m75 -23 c11 -13 6 -15 -34 -15 -25 0 -46 4 -46 9 0 23 62 27 80 6z"/>
<path d="M618 273 c6 -2 12 -20 12 -38 0 -50 19 -63 90 -62 33 0 60 4 60 9 0
4 -4 8 -10 8 -5 0 -10 20 -10 45 0 43 -1 45 -27 44 -16 0 -22 -3 -15 -6 6 -2
12 -20 12 -39 0 -28 -4 -35 -25 -40 -34 -8 -55 11 -55 52 0 29 -3 34 -22 33
-13 0 -17 -3 -10 -6z"/>
<path d="M820 273 c23 -6 81 -100 73 -118 -3 -9 -15 -21 -27 -25 -19 -8 -19
-9 6 -9 24 -1 32 7 58 59 17 33 39 69 50 80 20 20 20 20 -17 20 -25 0 -33 -3
-25 -9 12 -7 11 -14 -2 -40 -21 -39 -27 -39 -50 0 -15 26 -16 33 -5 40 9 6 -2
8 -31 8 -25 -1 -38 -3 -30 -6z"/>
</g>
</svg>
